<mxfile host="65bd71144e">
    <diagram id="_06wt8gM6J061VTvWZg9" name="Page-1">
        <mxGraphModel dx="629" dy="268" grid="1" gridSize="10" guides="1" tooltips="1" connect="1" arrows="1" fold="1" page="1" pageScale="1" pageWidth="827" pageHeight="1169" math="0" shadow="0">
            <root>
                <mxCell id="0"/>
                <mxCell id="1" parent="0"/>
                <mxCell id="2" value="User" style="swimlane;childLayout=stackLayout;horizontal=1;startSize=30;horizontalStack=0;rounded=1;fontSize=14;fontStyle=0;strokeWidth=2;resizeParent=0;resizeLast=1;shadow=0;dashed=0;align=center;" parent="1" vertex="1">
                    <mxGeometry x="20" y="12" width="160" height="160" as="geometry"/>
                </mxCell>
                <mxCell id="3" value="nickname&#10;email&#10;tel&#10;passwHash&#10;birthday&#10;gender&#10;role (executor, manager)&#10;image" style="align=left;strokeColor=none;fillColor=none;spacingLeft=4;fontSize=12;verticalAlign=top;resizable=0;rotatable=0;part=1;" parent="2" vertex="1">
                    <mxGeometry y="30" width="160" height="130" as="geometry"/>
                </mxCell>
                <mxCell id="9" value="Tasks" style="swimlane;childLayout=stackLayout;horizontal=1;startSize=30;horizontalStack=0;rounded=1;fontSize=14;fontStyle=0;strokeWidth=2;resizeParent=0;resizeLast=1;shadow=0;dashed=0;align=center;" parent="1" vertex="1">
                    <mxGeometry x="430" y="22" width="160" height="120" as="geometry"/>
                </mxCell>
                <mxCell id="10" value="body&#10;deadline" style="align=left;strokeColor=none;fillColor=none;spacingLeft=4;fontSize=12;verticalAlign=top;resizable=0;rotatable=0;part=1;" parent="9" vertex="1">
                    <mxGeometry y="30" width="160" height="90" as="geometry"/>
                </mxCell>
                <mxCell id="13" value="" style="endArrow=ERzeroToMany;html=1;rounded=0;exitX=1;exitY=0.25;exitDx=0;exitDy=0;entryX=0;entryY=0.25;entryDx=0;entryDy=0;startArrow=ERmandOne;startFill=0;endFill=0;" parent="1" source="3" target="10" edge="1">
                    <mxGeometry relative="1" as="geometry">
                        <mxPoint x="230" y="182" as="sourcePoint"/>
                        <mxPoint x="390" y="182" as="targetPoint"/>
                    </mxGeometry>
                </mxCell>
                <mxCell id="24" value="User" style="swimlane;childLayout=stackLayout;horizontal=1;startSize=30;horizontalStack=0;rounded=1;fontSize=14;fontStyle=0;strokeWidth=2;resizeParent=0;resizeLast=1;shadow=0;dashed=0;align=center;" vertex="1" parent="1">
                    <mxGeometry x="20" y="263" width="160" height="160" as="geometry"/>
                </mxCell>
                <mxCell id="25" value="nickname&#10;email&#10;tel&#10;passwHash&#10;birthday&#10;gender&#10;role (executor, manager)&#10;image" style="align=left;strokeColor=none;fillColor=none;spacingLeft=4;fontSize=12;verticalAlign=top;resizable=0;rotatable=0;part=1;" vertex="1" parent="24">
                    <mxGeometry y="30" width="160" height="130" as="geometry"/>
                </mxCell>
                <mxCell id="26" value="Tasks" style="swimlane;childLayout=stackLayout;horizontal=1;startSize=30;horizontalStack=0;rounded=1;fontSize=14;fontStyle=0;strokeWidth=2;resizeParent=0;resizeLast=1;shadow=0;dashed=0;align=center;" vertex="1" parent="1">
                    <mxGeometry x="430" y="273" width="160" height="120" as="geometry"/>
                </mxCell>
                <mxCell id="27" value="title&#10;description&#10;deadline&#10;status" style="align=left;strokeColor=none;fillColor=none;spacingLeft=4;fontSize=12;verticalAlign=top;resizable=0;rotatable=0;part=1;" vertex="1" parent="26">
                    <mxGeometry y="30" width="160" height="90" as="geometry"/>
                </mxCell>
                <mxCell id="28" value="" style="endArrow=ERzeroToMany;html=1;rounded=0;exitX=1;exitY=0.25;exitDx=0;exitDy=0;entryX=0;entryY=0.25;entryDx=0;entryDy=0;startArrow=ERmandOne;startFill=0;endFill=0;" edge="1" parent="1" source="25" target="27">
                    <mxGeometry relative="1" as="geometry">
                        <mxPoint x="230" y="433" as="sourcePoint"/>
                        <mxPoint x="390" y="433" as="targetPoint"/>
                    </mxGeometry>
                </mxCell>
                <mxCell id="29" value="" style="endArrow=ERzeroToMany;html=1;rounded=0;exitX=0.995;exitY=0.451;exitDx=0;exitDy=0;exitPerimeter=0;entryX=0;entryY=0.5;entryDx=0;entryDy=0;startArrow=ERmandOne;startFill=0;endFill=0;" edge="1" parent="1" source="25" target="27">
                    <mxGeometry relative="1" as="geometry">
                        <mxPoint x="190" y="383" as="sourcePoint"/>
                        <mxPoint x="350" y="383" as="targetPoint"/>
                    </mxGeometry>
                </mxCell>
                <mxCell id="30" value="as manager" style="edgeLabel;html=1;align=center;verticalAlign=middle;resizable=0;points=[];" vertex="1" connectable="0" parent="29">
                    <mxGeometry x="0.0767" y="1" relative="1" as="geometry">
                        <mxPoint as="offset"/>
                    </mxGeometry>
                </mxCell>
                <mxCell id="31" value="as executor" style="edgeLabel;html=1;align=center;verticalAlign=middle;resizable=0;points=[];" vertex="1" connectable="0" parent="1">
                    <mxGeometry x="290" y="323" as="geometry">
                        <mxPoint x="-7" y="-3" as="offset"/>
                    </mxGeometry>
                </mxCell>
            </root>
        </mxGraphModel>
    </diagram>
</mxfile>